<?xml version="1.0" standalone="no"?>
<!DOCTYPE svg PUBLIC "-//W3C//DTD SVG 20010904//EN"
 "http://www.w3.org/TR/2001/REC-SVG-20010904/DTD/svg10.dtd">
<svg version="1.0" xmlns="http://www.w3.org/2000/svg"
 width="64.000000pt" height="64.000000pt" viewBox="0 0 64.000000 64.000000"
 preserveAspectRatio="xMidYMid meet">

<g transform="translate(0.000000,64.000000) scale(0.100000,-0.100000)"
fill="#000000" stroke="none">
<path d="M381 586 c-30 -16 -50 -52 -51 -88 0 -25 -3 -27 -52 -30 -32 -2 -52
-8 -54 -16 -1 -7 0 -8 3 -2 2 5 28 10 57 10 40 0 57 -5 71 -20 14 -15 15 -23
6 -34 -7 -9 -11 -38 -9 -73 3 -54 5 -58 28 -58 24 0 25 3 28 68 2 49 7 67 17
67 10 0 12 -9 8 -34 -3 -19 -2 -51 1 -71 6 -30 11 -36 29 -33 20 3 22 10 25
67 2 35 -1 68 -7 74 -6 6 -3 16 9 29 14 15 28 19 71 16 53 -3 54 -4 53 -33 0
-16 -3 -50 -7 -75 -4 -31 -1 -25 10 19 20 82 13 95 -56 99 l-51 3 0 38 c0 64
-74 109 -129 77z m102 -27 c63 -77 -48 -175 -118 -104 -34 33 -32 70 5 107 26
25 36 29 63 24 18 -3 40 -16 50 -27z m-85 -218 c3 -56 1 -62 -15 -59 -14 2
-19 14 -21 52 -4 56 3 79 21 74 7 -3 13 -28 15 -67z m80 1 c2 -49 0 -62 -11
-62 -18 0 -27 21 -27 65 0 87 34 84 38 -3z"/>
<path d="M421 538 c-1 -21 -7 -28 -28 -31 l-28 -4 27 -2 c21 -1 28 -7 31 -28
l4 -28 2 27 c1 21 7 28 29 31 l27 4 -27 2 c-21 1 -28 7 -31 29 l-4 27 -2 -27z"/>
<path d="M13 534 c-3 -9 -2 -24 4 -33 14 -22 76 -26 96 -7 26 27 34 18 52 -54
10 -39 19 -69 22 -67 2 3 -3 33 -12 68 -20 79 -51 108 -113 109 -30 0 -44 -5
-49 -16z m95 -16 c-2 -17 -10 -24 -33 -26 -37 -3 -60 11 -52 32 4 11 19 16 47
16 37 0 41 -2 38 -22z"/>
<path d="M222 400 c0 -14 2 -19 5 -12 2 6 2 18 0 25 -3 6 -5 1 -5 -13z"/>
<path d="M282 411 c-9 -5 -12 -27 -10 -72 3 -61 4 -64 28 -64 23 0 25 4 28 58
4 72 -13 100 -46 78z m33 -67 c0 -48 -3 -59 -17 -62 -16 -3 -18 5 -18 56 0 32
3 62 7 66 17 17 28 -5 28 -60z"/>
<path d="M524 406 c-3 -7 -4 -40 -2 -72 2 -48 6 -59 22 -62 10 -2 22 2 27 10
13 20 11 112 -3 126 -16 16 -37 15 -44 -2z m42 -19 c10 -44 0 -102 -18 -105
-16 -3 -18 5 -18 56 0 32 3 62 7 65 12 13 23 7 29 -16z"/>
<path d="M197 330 c3 -19 12 -53 19 -75 13 -38 13 -38 7 -5 -3 19 -12 53 -19
75 -13 38 -13 38 -7 5z"/>
<path d="M242 315 c0 -11 4 -31 8 -45 6 -20 8 -21 8 -5 0 11 -4 31 -8 45 -6
20 -8 21 -8 5z"/>
<path d="M585 265 l-10 -40 -144 -3 c-97 -2 -148 1 -157 9 -10 8 -14 8 -14 0
0 -18 38 -22 180 -19 l135 3 13 28 c7 15 12 35 10 45 -2 9 -8 -1 -13 -23z"/>
<path d="M231 198 c-1 -11 6 -18 17 -18 15 0 18 -6 14 -30 -5 -38 12 -60 48
-60 37 0 54 23 46 60 l-5 30 64 0 64 0 -5 -28 c-7 -34 16 -62 50 -62 32 0 49
24 44 60 -3 21 0 30 11 33 9 3 -63 5 -161 6 -131 1 -178 4 -181 14 -3 7 -6 5
-6 -5z m109 -33 c26 -32 -13 -81 -47 -59 -23 14 -28 41 -13 59 16 19 44 19 60
0z m208 3 c7 -7 12 -22 12 -35 0 -27 -42 -42 -65 -23 -28 23 -11 70 25 70 9 0
21 -5 28 -12z"/>
<path d="M290 155 c-15 -18 -6 -45 13 -45 8 0 20 7 27 15 10 12 10 18 0 30
-16 19 -24 19 -40 0z m36 -6 c10 -17 -13 -36 -27 -22 -12 12 -4 33 11 33 5 0
12 -5 16 -11z"/>
<path d="M500 154 c-11 -12 -10 -18 3 -31 8 -9 23 -13 31 -10 21 8 21 43 0 51
-21 8 -20 8 -34 -10z m36 -5 c10 -17 -13 -36 -27 -22 -12 12 -4 33 11 33 5 0
12 -5 16 -11z"/>
</g>
</svg>
