<?xml version="1.0" standalone="no"?>
<!DOCTYPE svg PUBLIC "-//W3C//DTD SVG 20010904//EN"
 "http://www.w3.org/TR/2001/REC-SVG-20010904/DTD/svg10.dtd">
<svg version="1.0" xmlns="http://www.w3.org/2000/svg"
 width="50.000000pt" height="50.000000pt" viewBox="0 0 50.000000 50.000000"
 preserveAspectRatio="xMidYMid meet">

<g transform="translate(0.000000,50.000000) scale(0.100000,-0.100000)"
fill="#000000" stroke="none">
<path d="M145 456 c-115 -52 -139 -193 -49 -278 53 -49 115 -60 181 -33 l37
16 63 -63 c49 -49 65 -60 75 -50 10 10 -1 26 -50 75 l-62 63 20 39 c70 137
-75 293 -215 231z m135 -26 c45 -23 80 -80 80 -130 0 -50 -35 -107 -80 -130
-21 -11 -53 -20 -70 -20 -50 0 -107 35 -130 80 -38 74 -16 153 56 196 48 29
92 30 144 4z"/>
</g>
</svg>
